<svg fill="#FFFFFF" xmlns="http://www.w3.org/2000/svg"  viewBox="0 0 64 64" width="64px" height="64px"><path d="M 43.480469 0.00390625 C 40.300781 0.132813 36.496094 2.078125 34.230469 4.734375 C 32.300781 6.964844 30.421875 10.699219 30.921875 14.480469 C 30.984375 14.949219 31.363281 15.3125 31.832031 15.347656 C 32.046875 15.363281 32.257813 15.371094 32.46875 15.371094 C 35.585938 15.371094 38.976563 13.660156 41.277344 10.886719 C 43.671875 7.976563 44.882813 4.242188 44.515625 0.890625 C 44.457031 0.367188 43.988281 -0.046875 43.480469 0.00390625 Z M 42.578125 2.105469 C 42.578125 4.664063 41.554688 7.402344 39.734375 9.613281 C 37.898438 11.828125 35.273438 13.238281 32.84375 13.363281 C 32.796875 10.515625 34.316406 7.691406 35.746094 6.035156 C 37.421875 4.074219 40.160156 2.523438 42.578125 2.105469 Z M 42.445313 16.03125 C 39.863281 16.054688 37.457031 17.003906 35.46875 17.785156 C 34.234375 18.273438 33.066406 18.734375 32.367188 18.734375 C 31.570313 18.734375 30.394531 18.265625 29.152344 17.773438 C 27.257813 17.019531 25.097656 16.15625 22.796875 16.214844 C 17.585938 16.289063 12.667969 19.265625 9.960938 23.980469 C 4.875 32.796875 8.078125 46.152344 13.671875 54.238281 C 15.820313 57.339844 19.046875 62 23.441406 62 C 23.519531 62 23.601563 61.996094 23.679688 61.996094 C 25.566406 61.921875 26.902344 61.351563 28.199219 60.796875 C 29.617188 60.195313 30.960938 59.621094 33.132813 59.621094 C 35.195313 59.621094 36.464844 60.175781 37.816406 60.757813 C 39.183594 61.351563 40.601563 61.964844 42.714844 61.921875 C 47.28125 61.839844 50.109375 57.699219 52.386719 54.375 C 54.84375 50.777344 56.085938 47.273438 56.519531 45.890625 C 56.6875 45.390625 56.421875 44.835938 55.933594 44.636719 C 55.210938 44.339844 48.871094 41.519531 48.800781 33.84375 C 48.738281 27.789063 53.175781 24.546875 54.605469 23.652344 C 54.828125 23.503906 54.984375 23.273438 55.035156 23.011719 C 55.085938 22.746094 55.03125 22.472656 54.878906 22.25 C 51.253906 16.953125 45.714844 16.171875 43.5625 16.082031 C 43.183594 16.046875 42.8125 16.03125 42.445313 16.03125 Z M 42.453125 18.035156 C 42.777344 18.03125 43.097656 18.046875 43.421875 18.078125 C 45.214844 18.152344 49.535156 18.75 52.632813 22.578125 C 50.558594 24.105469 46.742188 27.757813 46.800781 33.859375 C 46.867188 41.441406 52.199219 44.980469 54.34375 46.09375 C 53.796875 47.652344 52.667969 50.417969 50.734375 53.246094 C 48.171875 56.992188 45.953125 59.863281 42.675781 59.921875 C 41 59.953125 39.890625 59.476563 38.609375 58.921875 C 37.203125 58.3125 35.609375 57.621094 33.132813 57.621094 C 30.550781 57.621094 28.886719 58.332031 27.417969 58.957031 C 26.183594 59.484375 25.121094 59.9375 23.601563 59.996094 C 20.453125 60.089844 17.882813 56.800781 15.316406 53.097656 C 8.289063 42.941406 8.203125 31.03125 11.691406 24.976563 C 14.050781 20.871094 18.316406 18.28125 22.828125 18.214844 C 22.871094 18.210938 22.910156 18.210938 22.953125 18.210938 C 24.832031 18.210938 26.730469 18.964844 28.410156 19.632813 C 29.902344 20.226563 31.1875 20.734375 32.371094 20.734375 C 33.449219 20.734375 34.726563 20.234375 36.203125 19.648438 C 38.011719 18.9375 40.207031 18.066406 42.453125 18.035156 Z M 45.535156 23.238281 C 45.152344 23.183594 44.75 23.359375 44.535156 23.714844 C 44.109375 24.421875 43.726563 25.167969 43.394531 25.925781 C 43.171875 26.433594 43.402344 27.019531 43.910156 27.238281 C 44.039063 27.296875 44.175781 27.324219 44.3125 27.324219 C 44.695313 27.324219 45.0625 27.101563 45.226563 26.722656 C 45.523438 26.046875 45.867188 25.378906 46.25 24.746094 C 46.535156 24.269531 46.382813 23.65625 45.910156 23.371094 C 45.792969 23.300781 45.664063 23.257813 45.535156 23.238281 Z M 43.265625 29.363281 C 42.71875 29.261719 42.203125 29.628906 42.109375 30.171875 C 41.914063 31.261719 41.8125 32.382813 41.8125 33.5 C 41.8125 36.667969 42.617188 39.8125 44.140625 42.59375 C 44.324219 42.929688 44.664063 43.117188 45.019531 43.117188 C 45.179688 43.117188 45.347656 43.078125 45.5 42.996094 C 45.984375 42.730469 46.160156 42.121094 45.894531 41.640625 C 44.535156 39.148438 43.8125 36.332031 43.8125 33.5 C 43.8125 32.5 43.902344 31.496094 44.078125 30.523438 C 44.171875 29.980469 43.8125 29.460938 43.265625 29.363281 Z M 14 38.964844 C 13.449219 38.964844 13 39.410156 13 39.964844 C 13 40.515625 13.445313 40.964844 14 40.964844 L 16 40.96875 C 16.550781 40.96875 17 40.523438 17 39.96875 C 17 39.417969 16.554688 38.96875 16 38.96875 Z M 16.675781 43.121094 C 16.546875 43.101563 16.414063 43.109375 16.28125 43.144531 L 14.347656 43.65625 C 13.8125 43.800781 13.496094 44.347656 13.640625 44.882813 C 13.757813 45.328125 14.160156 45.625 14.605469 45.625 C 14.6875 45.625 14.773438 45.613281 14.859375 45.59375 L 16.796875 45.078125 C 17.328125 44.933594 17.644531 44.386719 17.503906 43.855469 C 17.398438 43.453125 17.0625 43.175781 16.675781 43.121094 Z M 18.003906 46.980469 C 17.875 46.996094 17.75 47.035156 17.628906 47.105469 L 15.894531 48.101563 C 15.414063 48.375 15.25 48.988281 15.527344 49.46875 C 15.710938 49.789063 16.046875 49.96875 16.394531 49.96875 C 16.5625 49.96875 16.734375 49.925781 16.890625 49.835938 L 18.625 48.839844 C 19.105469 48.5625 19.269531 47.953125 18.996094 47.472656 C 18.789063 47.117188 18.394531 46.933594 18.003906 46.980469 Z M 20.667969 50.292969 C 20.410156 50.289063 20.152344 50.386719 19.957031 50.582031 L 18.542969 51.992188 C 18.148438 52.382813 18.148438 53.015625 18.535156 53.40625 C 18.730469 53.601563 18.988281 53.703125 19.246094 53.703125 C 19.5 53.703125 19.757813 53.605469 19.953125 53.410156 L 21.371094 52 C 21.761719 51.609375 21.761719 50.976563 21.371094 50.585938 C 21.175781 50.390625 20.921875 50.292969 20.667969 50.292969 Z M 24.097656 52.847656 C 23.710938 52.800781 23.3125 52.980469 23.105469 53.339844 L 22.105469 55.066406 C 21.828125 55.546875 21.988281 56.160156 22.46875 56.4375 C 22.625 56.527344 22.796875 56.570313 22.96875 56.570313 C 23.3125 56.570313 23.648438 56.390625 23.832031 56.074219 L 24.835938 54.34375 C 25.113281 53.863281 24.949219 53.25 24.472656 52.972656 C 24.355469 52.90625 24.226563 52.863281 24.097656 52.847656 Z"/></svg>