<?xml version="1.0" standalone="no"?>
<!DOCTYPE svg PUBLIC "-//W3C//DTD SVG 20010904//EN"
 "http://www.w3.org/TR/2001/REC-SVG-20010904/DTD/svg10.dtd">
<svg version="1.0" xmlns="http://www.w3.org/2000/svg"
 width="1024.000000pt" height="1024.000000pt" viewBox="0 0 1024.000000 1024.000000"
 preserveAspectRatio="xMidYMid meet">

<g transform="translate(0.000000,1024.000000) scale(0.100000,-0.100000)"
fill="#000000" stroke="none">
<path d="M0 5120 l0 -5120 5120 0 5120 0 0 5120 0 5120 -5120 0 -5120 0 0
-5120z m7053 3105 c93 -24 157 -63 238 -144 81 -81 109 -125 136 -218 16 -53
18 -166 21 -1417 1 -748 0 -1366 -3 -1373 -4 -11 -9 -12 -27 -2 -18 9 -152
114 -188 146 -3 3 -7 577 -10 1276 l-5 1272 -26 56 c-36 76 -90 133 -157 166
l-57 28 -1820 3 c-1208 1 -1838 -1 -1875 -8 -111 -21 -225 -135 -250 -253 -8
-37 -11 -628 -13 -2054 l-2 -2003 -85 -80 c-134 -126 -126 -143 -133 267 -10
517 -8 3837 3 3917 13 105 73 220 153 290 71 64 160 115 232 132 38 9 488 12
1930 13 1637 1 1888 -1 1938 -14z m-3563 -449 c77 -51 102 -152 57 -237 -65
-122 -256 -119 -316 4 -30 62 -28 123 8 178 56 89 164 113 251 55z m1795 25
c627 -53 1201 -435 1504 -1002 167 -314 241 -673 212 -1039 -11 -144 -44 -337
-61 -354 -6 -6 -27 -3 -62 12 -113 46 -298 101 -418 122 -69 12 -126 23 -127
24 -1 1 4 42 12 91 41 251 -3 541 -117 770 -173 345 -516 605 -888 670 -109
19 -303 19 -412 0 -166 -29 -383 -123 -518 -224 -100 -76 -258 -245 -319 -344
-233 -378 -253 -823 -55 -1223 73 -146 228 -336 369 -452 l50 -40 -30 -11
c-200 -72 -336 -129 -464 -193 l-154 -76 -51 55 c-460 502 -625 1207 -437
1865 114 397 342 724 686 982 306 229 706 365 1105 374 36 1 115 -2 175 -7z
m1674 -29 c52 -42 75 -87 75 -147 0 -61 -22 -105 -71 -142 -32 -25 -45 -28
-109 -28 -78 0 -107 13 -148 68 -32 43 -34 140 -4 196 50 93 176 119 257 53z
m-1641 -1127 c175 -41 350 -160 458 -311 124 -173 171 -402 128 -625 -14 -76
-56 -199 -76 -225 -4 -6 -43 -28 -85 -49 -60 -30 -99 -59 -169 -129 -50 -50
-108 -116 -127 -147 l-36 -57 -116 -17 c-325 -49 -608 58 -789 299 -117 156
-161 287 -161 486 0 241 61 397 214 551 206 206 482 288 759 224z m913 -1383
c16 -6 15 -13 -2 -80 -87 -343 -399 -641 -774 -740 -191 -51 -386 -50 -570 3
-107 31 -298 121 -292 138 2 6 41 27 88 45 91 35 554 190 740 246 l115 35 105
113 c136 147 236 211 364 238 49 10 204 11 226 2z m309 -67 c14 -4 55 -18 92
-32 78 -28 75 -16 31 -158 -67 -215 -179 -391 -373 -585 -145 -146 -239 -215
-400 -295 -358 -179 -826 -216 -1194 -95 -193 64 -516 254 -524 308 -4 26 68
70 146 88 l55 13 61 -43 c339 -241 838 -293 1236 -129 296 121 496 291 662
563 50 83 111 227 128 305 15 72 18 77 37 71 10 -2 29 -7 43 -11z m817 -380
c47 -48 76 -88 83 -112 8 -27 9 -150 3 -422 l-8 -383 -101 113 -101 114 -5
335 c-4 184 -4 356 -1 383 5 43 8 47 32 47 19 0 44 -19 98 -75z m-602 -599
c50 -23 76 -47 275 -261 47 -49 161 -171 255 -270 544 -572 601 -636 643 -720
120 -239 26 -526 -209 -644 -135 -68 -260 -74 -387 -20 -74 32 -99 55 -339
322 -377 419 -502 556 -628 692 -221 239 -250 287 -250 420 0 138 43 204 244
377 108 94 146 116 221 127 62 10 116 3 175 -23z m-2857 -519 c57 -37 99 -98
112 -163 7 -33 10 -129 8 -247 -3 -217 -10 -240 -86 -309 -51 -46 -99 -61
-177 -56 -105 6 -191 83 -214 189 -17 80 -14 385 5 448 18 62 68 121 127 151
62 31 168 25 225 -13z m-891 -379 c4 -7 8 -138 9 -290 l1 -277 32 -65 c36 -73
82 -117 150 -143 43 -15 168 -17 1723 -19 1834 -3 1701 2 1760 -61 33 -34 58
-92 58 -133 l0 -30 -1763 0 c-1944 0 -1814 -4 -1941 63 -112 59 -196 169 -227
297 -19 78 -14 501 6 540 24 46 125 130 156 130 15 0 31 -6 36 -12z m2899 -15
c48 -26 101 -83 122 -132 19 -46 21 -143 3 -204 -18 -63 -77 -128 -143 -158
l-53 -24 -680 0 -680 0 -41 22 c-130 69 -184 231 -127 376 19 48 102 122 150
135 24 7 288 10 723 9 684 -2 685 -2 726 -24z m-2538 -378 c1 -77 -2 -146 -7
-154 -17 -26 -81 -15 -116 19 -30 30 -30 31 -33 156 l-4 125 79 -3 78 -3 3
-140z"/>
<path d="M5070 7603 c-23 -9 -60 -45 -76 -75 -20 -38 -17 -97 6 -136 72 -119
248 -84 276 55 9 44 -26 117 -68 143 -32 19 -102 26 -138 13z"/>
<path d="M5025 6474 c-262 -71 -420 -218 -480 -449 -19 -76 -19 -223 0 -300
42 -166 171 -329 316 -398 114 -55 186 -70 304 -64 308 16 550 258 572 572 14
216 -96 431 -285 553 -97 63 -168 84 -297 88 -60 1 -119 0 -130 -2z m217 -332
c62 -27 115 -77 146 -136 37 -71 38 -188 3 -259 -64 -131 -205 -193 -347 -152
-48 14 -69 27 -114 73 -86 89 -109 184 -74 302 22 75 107 160 184 183 66 20
142 16 202 -11z"/>
<path d="M5099 6001 c-46 -15 -66 -30 -83 -65 -22 -46 -20 -81 6 -127 39 -70
120 -87 182 -38 80 63 70 180 -18 220 -45 20 -49 21 -87 10z"/>
<path d="M6361 3797 c-27 -13 -59 -54 -62 -77 -6 -59 1 -69 247 -337 310 -338
335 -363 369 -363 62 0 115 55 115 119 0 35 -2 37 -227 278 -84 90 -191 207
-238 260 -116 132 -146 150 -204 120z"/>
<path d="M7470 2921 c-141 -43 -198 -173 -132 -302 29 -59 71 -93 135 -110
136 -36 280 108 248 249 -26 117 -146 195 -251 163z"/>
<path d="M3723 3401 c-38 -24 -53 -49 -53 -91 0 -109 130 -150 195 -62 66 89
-48 212 -142 153z"/>
<path d="M5061 3114 c-79 -66 -28 -194 78 -194 51 0 101 54 101 110 0 34 -6
48 -34 76 -44 44 -99 47 -145 8z"/>
</g>
</svg>
