<?xml version="1.0" encoding="iso-8859-1"?>

<!DOCTYPE svg PUBLIC "-//W3C//DTD SVG 1.1//EN" "http://www.w3.org/Graphics/SVG/1.1/DTD/svg11.dtd">
<!-- Uploaded to: SVG Repo, www.svgrepo.com, Generator: SVG Repo Mixer Tools -->
<svg version="1.1" id="_x34_" xmlns="http://www.w3.org/2000/svg" xmlns:xlink="http://www.w3.org/1999/xlink" 
	 viewBox="0 0 512 512"  xml:space="preserve">
<g>
	<g>
		<g>
			<path style="fill:#656767;" d="M256,163.036c-48.049,0-87.045,38.996-87.045,87.045c0,48.136,38.996,87.045,87.045,87.045
				c48.049,0,87.045-38.909,87.045-87.045C343.046,202.032,304.049,163.036,256,163.036z M256,320.152
				c-38.735,0-70.071-31.335-70.071-70.072c0-38.648,31.336-70.07,70.071-70.07c38.735,0,70.071,31.422,70.071,70.07
				C326.072,288.818,294.736,320.152,256,320.152z"/>
			<path style="fill:none;" d="M256,163.036c-48.049,0-87.045,38.996-87.045,87.045c0,48.136,38.996,87.045,87.045,87.045
				c48.049,0,87.045-38.909,87.045-87.045C343.046,202.032,304.049,163.036,256,163.036z M185.929,250.081
				c0-38.648,31.336-70.07,70.071-70.07v140.141C217.265,320.152,185.929,288.818,185.929,250.081z"/>
			<path style="fill:#282828;" d="M448.457,0H26.288C11.839,0,0,11.839,0,26.288v447.586c0,1.046,0.087,2.176,0.261,3.222
				c1.392,12.011,10.968,21.5,22.893,22.892c1.044,0.174,2.089,0.261,3.133,0.261h459.425c14.449,0,26.287-11.837,26.287-26.375
				V63.631L448.457,0z M256,337.126c-48.049,0-87.045-38.909-87.045-87.045c0-48.049,38.996-87.045,87.045-87.045
				c48.049,0,87.045,38.996,87.045,87.045C343.046,298.217,304.049,337.126,256,337.126z M366.721,332.861
				c-8.443,0-15.233-6.79-15.233-15.233c0-8.356,6.79-15.233,15.233-15.233c8.444,0,15.233,6.877,15.233,15.233
				C381.954,326.071,375.165,332.861,366.721,332.861z"/>
			<path style="fill:#656767;" d="M262.827,480.314h-13.653c-6.148,0-11.179-5.031-11.179-11.179v-94.878
				c0-6.148,5.03-11.179,11.179-11.179h13.653c6.148,0,11.179,5.03,11.179,11.179v94.878
				C274.006,475.283,268.975,480.314,262.827,480.314z"/>
		</g>
		<path style="fill:#EAECEE;" d="M436.062,39.406v93.707H23.171V39.406c0-8.464,6.925-15.392,15.392-15.392H420.67
			C429.137,24.014,436.062,30.942,436.062,39.406z"/>
		<path style="fill:#EAECEE;" d="M494.093,105.978v11.641h-62.535v-11.641c0-1.052,1.049-1.912,2.331-1.912h57.872
			C493.044,104.066,494.093,104.927,494.093,105.978z"/>
		<rect x="42.909" y="34.044" style="fill:#B5B5B5;" width="89.584" height="89.584"/>
		<rect x="148.411" y="34.044" style="fill:#B5B5B5;" width="229.944" height="14.508"/>
		<rect x="148.411" y="59.644" style="fill:#B5B5B5;" width="151.604" height="14.507"/>
		<rect x="148.411" y="85.243" style="fill:#B5B5B5;" width="81.891" height="14.508"/>
		<rect x="311.976" y="103.208" style="fill:#E1C46B;" width="22.035" height="28.822"/>
		<rect x="356.045" y="103.208" style="fill:#E1C46B;" width="22.035" height="28.822"/>
		<rect x="334.01" y="103.208" style="fill:#97CFAC;" width="22.035" height="28.822"/>
		<rect x="19.696" y="435.102" style="opacity:0.2;fill:#4B4A4A;" width="29.167" height="29.167"/>
		<rect x="466.529" y="435.102" style="opacity:0.2;fill:#4B4A4A;" width="29.167" height="29.167"/>
	</g>
	<path style="opacity:0.1;fill:#FFFFFF;" d="M256,0v180.011c-38.735,0-70.071,31.422-70.071,70.07
		c0,38.737,31.336,70.072,70.071,70.072v180.096H26.288c-1.045,0-2.089-0.087-3.133-0.261c-11.925-1.392-21.5-10.881-22.893-22.892
		C0.087,476.05,0,474.919,0,473.874V26.288C0,11.839,11.839,0,26.288,0H256z"/>
</g>
</svg>